<?xml version="1.0" standalone="no"?>
<!DOCTYPE svg PUBLIC "-//W3C//DTD SVG 20010904//EN"
 "http://www.w3.org/TR/2001/REC-SVG-20010904/DTD/svg10.dtd">
<svg version="1.0" xmlns="http://www.w3.org/2000/svg"
 width="128.000000pt" height="128.000000pt" viewBox="0 0 128.000000 128.000000"
 preserveAspectRatio="xMidYMid meet">

<g transform="translate(0.000000,128.000000) scale(0.100000,-0.100000)"
fill="#000000" stroke="none">
<path d="M583 1171 c-194 -49 -263 -290 -122 -430 50 -50 103 -71 179 -71 78
0 130 22 182 76 89 94 95 232 14 339 -49 64 -173 106 -253 86z m166 -79 c66
-40 94 -98 89 -184 -3 -57 -8 -73 -34 -105 -90 -112 -238 -112 -328 0 -42 52
-49 144 -16 212 51 106 183 141 289 77z"/>
<path d="M455 596 c-132 -42 -248 -141 -303 -257 -38 -80 -61 -201 -42 -224
11 -13 78 -15 530 -15 452 0 519 2 530 15 10 12 10 30 1 87 -30 181 -156 330
-328 387 -52 18 -86 21 -205 20 -87 0 -159 -5 -183 -13z m427 -79 c88 -43 158
-113 200 -198 26 -53 50 -153 40 -164 -7 -7 -957 -7 -964 0 -3 3 -1 29 4 58
28 150 138 275 293 329 41 15 77 18 201 16 l150 -3 76 -38z"/>
</g>
</svg>
