<?xml version="1.0" standalone="no"?>
<!DOCTYPE svg PUBLIC "-//W3C//DTD SVG 20010904//EN"
 "http://www.w3.org/TR/2001/REC-SVG-20010904/DTD/svg10.dtd">
<svg version="1.0" xmlns="http://www.w3.org/2000/svg"
 width="128.000000pt" height="128.000000pt" viewBox="0 0 128.000000 128.000000"
 preserveAspectRatio="xMidYMid meet">

<g transform="translate(0.000000,128.000000) scale(0.100000,-0.100000)"
fill="#000000" stroke="none">
<path d="M500 1216 c-97 -20 -191 -105 -298 -269 -98 -151 -174 -362 -192
-530 -15 -145 -6 -165 103 -223 89 -47 235 -97 352 -120 123 -25 382 -22 513
5 195 41 268 83 292 170 7 29 10 111 8 236 -3 183 -4 193 -27 227 -44 63 -84
83 -170 82 -102 -1 -170 -33 -245 -116 l-55 -60 -51 12 c-78 19 -146 5 -241
-47 -6 -4 -29 151 -29 195 0 21 4 22 81 22 l81 0 65 63 c80 77 98 108 84 148
-5 16 -7 44 -4 63 5 29 1 40 -23 64 -39 39 -112 79 -154 84 -19 3 -60 0 -90
-6z m157 -78 c29 -17 55 -38 58 -45 5 -15 -65 -97 -98 -115 -15 -7 -23 -6 -35
6 -15 14 -14 18 7 47 42 57 2 82 -44 27 -22 -26 -26 -39 -21 -67 3 -20 15 -43
28 -53 38 -29 74 -23 123 23 71 66 54 20 -19 -49 l-64 -62 -62 0 c-55 0 -61 2
-55 19 8 26 -17 44 -39 28 -31 -22 -36 -83 -20 -219 13 -112 13 -132 0 -170
-9 -24 -25 -50 -38 -58 -59 -40 -64 -47 -47 -65 15 -15 19 -15 47 -1 16 8 41
29 54 46 52 69 93 112 119 125 81 43 179 36 255 -16 44 -30 74 -33 74 -6 0 8
-9 22 -20 32 -27 25 -25 35 15 83 71 82 220 123 287 78 60 -39 63 -53 63 -268
0 -184 -1 -198 -21 -225 -53 -71 -206 -113 -441 -120 -242 -8 -400 22 -590
112 -93 44 -131 79 -119 112 4 9 11 58 16 108 18 199 141 459 294 623 102 109
193 131 293 70z"/>
</g>
</svg>
