<?xml version="1.0" standalone="no"?>
<!DOCTYPE svg PUBLIC "-//W3C//DTD SVG 20010904//EN"
 "http://www.w3.org/TR/2001/REC-SVG-20010904/DTD/svg10.dtd">
<svg version="1.0" xmlns="http://www.w3.org/2000/svg"
 width="128.000000pt" height="128.000000pt" viewBox="0 0 128.000000 128.000000"
 preserveAspectRatio="xMidYMid meet">

<g transform="translate(0.000000,128.000000) scale(0.100000,-0.100000)"
fill="#000000" stroke="none">
<path d="M533 1065 c-47 -28 -93 -108 -93 -160 0 -47 44 -126 86 -155 26 -17
53 -25 98 -28 72 -4 114 15 160 72 25 30 31 48 34 99 4 73 -15 115 -72 161
-32 26 -47 31 -104 34 -58 2 -73 -1 -109 -23z m175 -35 c68 -42 92 -132 52
-198 -61 -99 -203 -95 -257 8 -29 54 -29 75 0 130 38 75 134 103 205 60z"/>
<path d="M940 934 c-112 -95 -57 -259 87 -259 113 0 181 113 128 214 -37 73
-153 97 -215 45z m161 -43 c59 -59 23 -164 -61 -177 -77 -12 -140 72 -110 146
27 64 120 81 171 31z"/>
<path d="M173 931 c-122 -77 -65 -266 80 -266 140 0 197 157 93 254 -37 35
-127 41 -173 12z m131 -32 c68 -31 72 -133 6 -177 -46 -31 -94 -25 -132 18
-79 87 17 209 126 159z"/>
<path d="M531 674 c-49 -18 -85 -38 -118 -67 -21 -19 -24 -19 -63 -3 -49 20
-149 21 -194 2 -47 -20 -104 -73 -128 -120 -15 -28 -23 -66 -26 -122 -6 -110
-1 -114 165 -114 121 0 124 -1 132 -24 5 -13 17 -26 26 -30 28 -10 614 -7 635
4 10 5 21 23 25 40 l7 30 127 0 c154 0 161 4 161 97 0 83 -25 148 -75 198 -74
74 -192 95 -286 50 -35 -17 -36 -17 -80 13 -90 61 -213 79 -308 46z m244 -57
c108 -55 164 -147 171 -276 5 -123 37 -111 -306 -111 -257 0 -299 2 -304 15
-13 35 1 170 23 220 36 81 111 146 201 176 49 16 162 4 215 -24z m319 -29 c23
-7 59 -30 81 -53 45 -45 65 -97 65 -174 l0 -51 -124 0 -123 0 -6 63 c-5 42
-18 84 -41 130 -19 37 -33 67 -33 67 1 0 20 7 42 15 50 18 86 18 139 3z m-765
-19 c18 -6 30 -14 28 -18 -41 -76 -59 -130 -64 -191 l-6 -71 -121 3 -121 3 -3
47 c-6 95 37 176 117 218 41 22 121 26 170 9z"/>
</g>
</svg>
