<?xml version="1.0" standalone="no"?>
<!DOCTYPE svg PUBLIC "-//W3C//DTD SVG 20010904//EN"
 "http://www.w3.org/TR/2001/REC-SVG-20010904/DTD/svg10.dtd">
<svg version="1.0" xmlns="http://www.w3.org/2000/svg"
 width="128.000000pt" height="128.000000pt" viewBox="0 0 128.000000 128.000000"
 preserveAspectRatio="xMidYMid meet">

<g transform="translate(0.000000,128.000000) scale(0.100000,-0.100000)"
fill="#000000" stroke="none">
<path d="M12 948 c-16 -16 -15 -43 2 -57 9 -8 183 -10 631 -9 576 3 619 4 629
20 8 13 8 23 0 35 -10 17 -53 18 -631 21 -473 2 -622 -1 -631 -10z"/>
<path d="M12 668 c-16 -16 -15 -43 2 -57 9 -8 183 -10 631 -9 576 3 619 4 629
20 8 13 8 23 0 35 -10 17 -53 18 -631 21 -473 2 -622 -1 -631 -10z"/>
<path d="M412 388 c-16 -16 -15 -43 2 -57 9 -8 131 -10 431 -9 385 3 419 4
429 21 8 12 8 22 0 35 -10 16 -44 17 -430 20 -318 2 -423 -1 -432 -10z"/>
</g>
</svg>
